# AST/ASF file generated using VICON BodyLanguage
# -----------------------------------------------
:version 1.10
:name VICON
:units
  mass 1.0
  length 0.45
  angle deg
:documentation
   .ast/.asf automatically generated from VICON data using
   VICON BodyBuilder and BodyLanguage model FoxedUp or BRILLIANT.MOD
:root
   order TX TY TZ RX RY RZ
   axis XYZ
   position 0 0 0  
   orientation 0 0 0 
:bonedata
  begin
     id 1 
     name lhipjoint
     direction 0.711131 -0.61297 0.344326 
     length 2.29162 
     axis 0 0 0  XYZ
  end
  begin
     id 2 
     name lfemur
     direction 0.34202 -0.939693 0  
     length 6.71424  
     axis 0 0 20  XYZ
    dof rx ry rz
    limits (-160.0 20.0)
           (-70.0 70.0)
           (-60.0 70.0)
  end
  begin
     id 3 
     name ltibia
     direction 0.34202 -0.939693 0   
     length 6.7087   
     axis 0 0 20   XYZ
    dof rx
    limits (-10.0 170.0)
  end
  begin
     id 4 
     name lfoot
     direction 0.0230374 -0.0632947 0.997729   
     length 1.56743   
     axis -90 7.62852e-016 20   XYZ
    dof rx rz
    limits (-45.0 90.0)
           (-70.0 20.0)
  end
  begin
     id 5 
     name ltoes
     direction 1.53585e-011 -4.21885e-011 1   
     length 0.802914   
     axis -90 7.62852e-016 20   XYZ
    dof rx
    limits (-90.0 20.0)
  end
  begin
     id 6 
     name rhipjoint
     direction -0.733192 -0.592884 0.333043   
     length 2.36925  
     axis 0 0 0  XYZ 
  end
  begin
     id 7 
     name rfemur
     direction -0.34202 -0.939693 0   
     length 6.67027   
     axis 0 0 -20   XYZ
    dof rx ry rz
    limits (-160.0 20.0)
           (-70.0 70.0)
           (-70.0 60.0)
  end
  begin
     id 8 
     name rtibia
     direction -0.34202 -0.939693 0   
     length 6.6862   
     axis 0 0 -20   XYZ
    dof rx
    limits (-10.0 170.0)
 end
 begin
     id 9 
     name rfoot
     direction -0.0949739 -0.260939 0.960672   
     length 1.67698  
     axis -90 -7.62852e-016 -20   XYZ
    dof rx rz
    limits (-45.0 90.0)
           (-20.0 70.0)
  end
  begin
     id 10 
     name rtoes
     direction -1.5353e-011 -4.21868e-011 1   
     length 0.846298   
     axis -90 -7.62852e-016 -20   XYZ
    dof rx
    limits (-90.0 20.0)
  end
  begin
     id 11 
     name lowerback
     direction -0.0206828 0.999785 -0.00109866   
     length 2.04382   
     axis 0 0 0   XYZ
    dof rx ry rz
    limits (-20.0 45.0)
           (-30.0 30.0)
           (-30.0 30.0)
  end
  begin
     id 12 
     name upperback
     direction -0.0105003 0.999727 -0.0208904   
     length 2.04538   
     axis 0 0 0   XYZ
    dof rx ry rz
    limits (-20.0 45.0)
           (-30.0 30.0)
           (-30.0 30.0)
  end
  begin
     id 13 
     name thorax
     direction -0.000416255 0.999808 -0.0196023   
     length 2.0399   
     axis 0 0 0   XYZ
    dof rx ry rz
    limits (-20.0 45.0)
           (-30.0 30.0)
           (-30.0 30.0)
  end
  begin
     id 14 
     name lowerneck
     direction 0.0627861 0.989205 0.13241   
     length 1.46207   
     axis 0 0 0   XYZ
    dof rx ry rz
    limits (-20.0 45.0)
           (-30.0 30.0)
           (-30.0 30.0)
  end
  begin
     id 15 
     name upperneck
     direction 0.00627179 0.994526 0.104303   
     length 1.41419   
     axis 0 0 0   XYZ
    dof rx ry rz
    limits (-20.0 45.0)
           (-30.0 30.0)
           (-30.0 30.0)
  end
  begin
     id 16
     name head
     direction -0.00443838 0.999688 0.0245968  
     length 1.50718  
     axis 0 0 0   XYZ
    dof rx ry rz
    limits (-20.0 45.0)
           (-30.0 30.0)
           (-30.0 30.0)
  end
  begin
     id 17 
     name lclavicle
     direction 0.758742 0.650995 -0.0227258  
     length 2.86888  
     axis 0 0 0   XYZ
    dof ry rz
    limits (-20.0 10.0)
           (0.0 20.0)
  end
  begin
     id 18 
     name lhumerus
     direction 1 -4.48962e-011 1.06664e-027   
     length 4.65776   
     axis -180 -30 -90   XYZ
    dof rx ry rz
    limits (-60.0 90.0)
           (-90.0 90.0)
           (-90.0 90.0)
  end
  begin
     id 19
     name lradius
     direction 1 -4.48968e-011 1.40404e-026   
     length 3.55539   
     axis -180 -30 -90   XYZ
    dof rx
    limits (-10.0 170.0)
  end
  begin
     id 20
     name lwrist
     direction 1 -4.48976e-011 3.32647e-026   
     length 1.77769   
     axis -2.20186e-014 90 90   XYZ
    dof ry
    limits (-180.0 0.0)
 end
  begin
     id 21 
     name lhand
     direction 1 -4.48982e-011 6.65293e-026   
     length 0.707264   
     axis -4.24514e-014 90 90   XYZ
    dof rx rz
    limits (-90.0 90.0)
           (-45.0 45.0)
  end
  begin
     id 22 
     name lfingers
     direction 1 -4.48966e-011 1.33059e-025   
     length 0.570215   
     axis -8.49028e-014 90 90   XYZ
    dof rx
    limits (0.0 90.0)
  end
  begin
     id 23
     name lthumb
     direction 0.707107 -6.3493e-011 0.707107   
     length 0.818718   
     axis -90 45 2.85299e-015   XYZ
    dof rx rz
    limits (-45.0 45.0)
           (-45.0 45.0)
  end
  begin
     id 24 
     name rclavicle
     direction -0.870343 0.482028 -0.100759   
     length 3.2251  
     axis 0 0 0   XYZ 
    dof ry rz
    limits (-10.0 20.0)
           (-20.0 0.0)
  end
  begin
     id 25 
     name rhumerus
     direction -1 -4.48974e-011 -9.45849e-028  
     length 4.71925   
     axis -180 30 90   XYZ
    dof rx ry rz
    limits (-90.0 60.0)
           (-90.0 90.0)
           (-90.0 90.0)
  end
  begin
     id 26 
     name rradius
     direction -1 -4.48965e-011 1.17607e-026   
     length 3.5699   
     axis -180 30 90   XYZ
    dof rx
    limits (-10.0 170.0)
  end
  begin
     id 27 
     name rwrist
     direction -1 -4.48968e-011 3.32647e-026   
     length 1.78495   
     axis -2.20186e-014 -90 -90   XYZ
    dof ry
    limits (-180.0 0.0)
  end
  begin
     id 28
     name rhand
     direction -1 -4.48995e-011 6.65293e-026   
     length 0.507757   
     axis -4.24514e-014 -90 -90   XYZ
    dof rx rz
    limits (-90.0 90.0)
           (-45.0 45.0)
  end
  begin
     id 29
     name rfingers
     direction -1 -4.48864e-011 1.33059e-025   
     length 0.409367   
     axis -8.49028e-014 -90 -90   XYZ
    dof rx
    limits (0.0 90.0)
  end
  begin
     id 30
     name rthumb
     direction -0.707107 -6.3494e-011 0.707107   
     length 0.587771   
     axis -90 -45 -2.85299e-015   XYZ
    dof rx rz
    limits (-45.0 45.0)
           (-45.0 45.0)
  end
:hierarchy
  begin
    root lhipjoint rhipjoint lowerback
    lhipjoint lfemur
    lfemur ltibia
    ltibia lfoot
    lfoot ltoes
    rhipjoint rfemur
    rfemur rtibia
    rtibia rfoot
    rfoot rtoes
    lowerback upperback
    upperback thorax
    thorax lowerneck lclavicle rclavicle
    lowerneck upperneck
    upperneck head
    lclavicle lhumerus
    lhumerus lradius
    lradius lwrist
    lwrist lhand lthumb
    lhand lfingers
    rclavicle rhumerus
    rhumerus rradius
    rradius rwrist
    rwrist rhand rthumb
    rhand rfingers
  end

#!OML:ASF E:\Steps\Project 1\Capture day 1\Session 2\Subject.ASF
:FULLY-SPECIFIED
:DEGREES
1
root 9.91677 16.402 5.69717 23.81 -7.44271 0.402955
lowerback -28.9199 -2.8785 -5.2906
upperback -2.77026 -2.02643 -0.376138
thorax 13.1078 -1.20807 1.82504
lowerneck 0.929975 -10.0985 -3.22185
upperneck -6.81387 -13.2436 7.19753
head -1.58322 -6.7181 2.98548
rclavicle -4.96962e-015 2.06736e-014
rhumerus -32.6625 -21.4146 -77.8428
rradius 24.2909
rwrist 10.9281
rhand -12.789 -49.2823
rfingers 7.12502
rthumb 13.2966 -78.8381
lclavicle -4.96962e-015 2.06736e-014
lhumerus -33.5714 29.1098 66.9813
lradius 13.4394
lwrist -25.2343
lhand -34.1748 -20.0682
lfingers 7.12502
lthumb -7.34831 9.78417
rfemur -21.334 6.21238 17.1065
rtibia 4.05975
rfoot -13.3715 1.22664
rtoes -24.7735
lfemur -19.4985 -7.66939 -16.9407
ltibia 5.18048
lfoot -7.46717 3.7003
ltoes -30.9769
2
root 9.92252 16.3981 5.70959 23.8181 -7.19558 0.443878
lowerback -29.2304 -2.90269 -5.1678
upperback -2.26261 -2.06381 -0.355616
thorax 13.0342 -1.21337 1.63952
lowerneck 0.542381 -10.1542 -3.12034
upperneck -6.55313 -13.3236 7.07862
head -1.44144 -6.74984 2.89031
rclavicle 1.14301e-015 1.74931e-014
rhumerus -32.4113 -21.5928 -77.769
rradius 23.9438
rwrist 10.9733
rhand -12.8541 -48.801
rfingers 7.12502
rthumb 13.2338 -78.3609
lclavicle 1.14301e-015 1.74931e-014
lhumerus -33.338 28.603 67.2855
lradius 13.6829
lwrist -24.2085
lhand -34.1423 -20.0346
lfingers 7.12502
lthumb -7.31696 9.81884
rfemur -21.1073 5.74702 17.1803
rtibia 3.80533
rfoot -13.4252 1.41611
rtoes -22.6269
lfemur -19.4654 -7.78854 -17.0174
ltibia 5.17814
lfoot -7.48045 3.55259
ltoes -31.4588
3
root 9.92518 16.3973 5.71202 23.7831 -7.03854 0.498509
lowerback -29.1693 -2.89821 -5.12807
upperback -2.28034 -2.06868 -0.401241
thorax 12.984 -1.21134 1.56936
lowerneck 0.54538 -10.199 -3.15217
upperneck -6.4693 -13.3844 7.15459
head -1.40408 -6.78049 2.91502
rclavicle -2.01269e-014 -4.77083e-015
rhumerus -32.4335 -21.9604 -77.5376
rradius 23.6895
rwrist 11.1947
rhand -12.7685 -48.1171
rfingers 7.12502
rthumb 13.3164 -77.6716
lclavicle -2.01269e-014 -4.77083e-015
lhumerus -33.1944 27.6006 67.7192
lradius 14.0027
lwrist -22.7638
lhand -34.1501 -20.4788
lfingers 7.12502
lthumb -7.32441 9.37438
rfemur -21.0424 5.58209 17.167
rtibia 3.83413
rfoot -13.8533 1.42146
rtoes -16.7797
lfemur -19.4595 -7.92933 -17.0718
ltibia 5.22288
lfoot -7.52827 3.49907
ltoes -31.9464
4
root 9.92549 16.3981 5.70885 23.7349 -6.95247 0.5
lowerback -28.8482 -2.86147 -5.08554
upperback -2.77024 -2.06012 -0.468728
thorax 13.062 -1.20751 1.58852
lowerneck 0.602534 -10.2637 -3.19319
upperneck -6.32373 -13.4805 7.10211
head -1.36266 -6.82564 2.90072
rclavicle -1.56046e-014 -3.18055e-015
rhumerus -32.6367 -22.0601 -77.3638
rradius 23.6519
rwrist 11.2331
rhand -12.7005 -47.926
rfingers 7.12502
rthumb 13.3819 -77.4763
lclavicle -1.56046e-014 -3.18055e-015
lhumerus -33.2682 26.5914 68.0702
lradius 14.4373
lwrist -21.4058
lhand -34.2351 -21.312
lfingers 7.12502
lthumb -7.40653 8.53837
rfemur -21.0259 5.64783 17.1687
rtibia 3.92728
rfoot -13.5928 1.21165
rtoes -24.3167
lfemur -19.4614 -7.98938 -17.0575
ltibia 5.28048
lfoot -7.54397 3.47585
ltoes -32.1606
5
root 9.92482 16.3975 5.70972 23.7291 -6.86878 0.442125
lowerback -28.8281 -2.83837 -5.00045
upperback -2.7629 -2.05868 -0.46421
thorax 13.0574 -1.20232 1.54574
lowerneck 0.234188 -10.3028 -2.94483
upperneck -5.85647 -13.5544 6.65562
head -1.19317 -6.84872 2.67105
rclavicle -9.69075e-015 -2.38542e-014
rhumerus -32.6735 -22.1892 -77.2884
rradius 23.6526
rwrist 11.4427
rhand -12.5305 -48.2074
rfingers 7.12502
rthumb 13.5458 -77.7468
lclavicle -9.69075e-015 -2.38542e-014
lhumerus -33.2524 26.1401 68.1975
lradius 14.8296
lwrist -20.791
lhand -34.273 -21.2989
lfingers 7.12502
lthumb -7.44308 8.55014
rfemur -20.9421 5.48261 17.2999
rtibia 3.831
rfoot -13.4536 1.28889
rtoes -26.6785
lfemur -19.4589 -8.00427 -16.9709
ltibia 5.27678
lfoot -7.57345 3.41364
ltoes -31.6514
6
root 9.92376 16.3966 5.71135 23.7408 -6.82328 0.412047
lowerback -28.8966 -2.83605 -4.9462
upperback -2.72629 -2.06699 -0.4663
thorax 13.1352 -1.20443 1.50602
lowerneck 0.657751 -10.219 -3.10045
upperneck -6.30088 -13.4217 7.05692
head -1.37748 -6.79792 2.87498
rclavicle 3.94091e-014 -1.59028e-014
rhumerus -32.6645 -22.4919 -77.1854
rradius 23.6284
rwrist 11.7996
rhand -12.2661 -48.4612
rfingers 7.12502
rthumb 13.8005 -77.9834
lclavicle 3.94091e-014 -1.59028e-014
lhumerus -33.1854 26.1319 68.1183
lradius 15.0857
lwrist -20.6679
lhand -34.0581 -20.1028
lfingers 7.12502
lthumb -7.23569 9.7535
rfemur -20.8914 5.30109 17.3827
rtibia 3.73035
rfoot -13.3883 1.46825
rtoes -25.9157
lfemur -19.4435 -7.93876 -16.9321
ltibia 5.22768
lfoot -7.56951 3.28923
ltoes -31.2499
